<?xml version="1.0" standalone="no"?>
<!DOCTYPE svg PUBLIC "-//W3C//DTD SVG 20010904//EN"
 "http://www.w3.org/TR/2001/REC-SVG-20010904/DTD/svg10.dtd">
<svg version="1.0" xmlns="http://www.w3.org/2000/svg"
 width="300.000000pt" height="300.000000pt" viewBox="0 0 300.000000 300.000000"
 preserveAspectRatio="xMidYMid meet">
<metadata>
Created by potrace 1.14, written by Peter Selinger 2001-2017
</metadata>
<g transform="translate(0.000000,300.000000) scale(0.100000,-0.100000)"
fill="#000000" stroke="none">
<path d="M1113 2204 c-172 -29 -378 -128 -565 -270 -88 -68 -269 -248 -291
-290 -64 -125 28 -234 197 -234 56 0 65 4 89 39 14 21 14 27 2 51 -15 29 -40
40 -92 40 -24 0 -33 5 -33 16 0 28 257 276 345 334 98 64 238 131 331 159 69
21 94 25 148 22 29 -1 29 -1 23 -53 -5 -52 -65 -205 -132 -339 -28 -54 -49
-79 -117 -135 -200 -164 -452 -461 -492 -579 -19 -53 -7 -95 34 -123 42 -28
92 -23 157 14 107 62 345 353 513 627 60 98 71 110 140 155 73 49 158 92 179
92 6 0 11 -7 11 -16 0 -16 -188 -397 -254 -514 -67 -119 -106 -199 -106 -218
0 -23 37 -59 70 -67 47 -11 84 15 232 164 170 172 297 284 493 437 236 184
415 298 499 318 39 9 35 1 -67 -135 -278 -375 -456 -727 -425 -845 10 -41 79
-111 131 -134 83 -37 165 0 304 136 84 81 93 94 93 127 0 41 -32 79 -59 69 -9
-3 -56 -37 -106 -75 -91 -70 -163 -113 -173 -103 -15 16 68 221 139 341 26 44
67 107 91 140 262 354 293 405 283 466 -8 45 -48 108 -90 141 -55 43 -174 25
-315 -48 -67 -35 -378 -263 -530 -389 -47 -39 -92 -76 -102 -83 -11 -9 -5 16
22 85 75 191 71 298 -12 348 -37 21 -122 15 -205 -17 -30 -11 -56 -18 -59 -16
-2 3 1 31 7 64 12 66 5 164 -16 203 -15 30 -50 63 -82 80 -41 21 -136 28 -210
15z"/>
</g>
</svg>
